<svg width="322" height="49" viewBox="0 0 322 49" fill="none" xmlns="http://www.w3.org/2000/svg">
<path d="M15.8344 42.3783C11.5382 38.7739 3.48413 26.0357 6.57995 14.7259C8.54802 13.5896 13.3733 12.1307 16.9298 15.3851C20.4864 18.6396 21.4711 22.6753 21.5189 24.2863C21.1819 24.3587 20.612 24.5288 20.0627 24.8132C18.8125 22.0431 17.7116 20.1121 16.7066 19.0004C15.8661 18.0705 13.7212 16.9454 11.4698 17.2536C10.3164 17.4115 7.48758 18.8708 7.97831 21.2688C8.10159 19.1007 10.5824 18.1054 11.6196 18.1084C13.4461 18.1137 14.8287 19.0377 15.7228 20.4071C16.6518 21.8301 17.2334 23.8489 17.4535 25.3551C17.7426 27.3333 18.9387 30.679 20.3419 32.1442C19.9278 33.6896 18.3655 33.4272 17.2634 32.409C15.5688 30.8434 14.227 28.043 15.6038 25.4261C14.2068 26.8171 13.9482 30.9541 15.3028 33.3003C16.3371 35.0918 17.5382 36.2281 19.1592 36.8835C20.7109 37.5109 22.4551 36.9953 23.9205 35.544C23.6229 38.3629 25.8828 41.4583 28.8817 43.199C28.8817 43.199 20.1305 45.9826 15.8344 42.3783Z" fill="url(#paint0_linear_23_129)"/>
<rect x="22.4503" y="30.8539" width="3.03667" height="3.03667" rx="1.51833" transform="rotate(-107.473 22.4503 30.8539)" fill="#D9D9D9"/>
<rect x="22.4503" y="30.8539" width="3.03667" height="3.03667" rx="1.51833" transform="rotate(-107.473 22.4503 30.8539)" fill="url(#paint1_linear_23_129)"/>
<path d="M26.4529 25.2954C26.0447 25.9915 25.0864 26.109 24.5221 25.5321V25.5321C24.1418 25.1433 24.0638 24.5501 24.3305 24.0761L25.9622 21.1767C26.2523 20.6613 26.8632 20.4188 27.4278 20.595V20.595C28.1978 20.8352 28.5437 21.7296 28.1357 22.4254L26.4529 25.2954Z" fill="#225BFF"/>
<path d="M14.2307 1.78627C19.5002 -0.132123 34.5589 -0.738049 42.8055 7.5979C42.8055 9.87043 41.6563 14.7787 37.0597 16.2316C32.463 17.6844 28.4756 16.5193 27.0565 15.7552C27.1623 15.4272 27.3 14.8486 27.3283 14.2306C30.3524 14.533 32.5751 14.5451 34.0404 14.2307C35.2659 13.9676 37.3127 12.6727 38.1715 10.5688C38.6115 9.49093 38.7622 6.3115 36.44 5.53745C38.256 6.7283 37.8776 9.37434 37.3564 10.2711C36.4386 11.8503 34.9471 12.5856 33.314 12.6752C31.6172 12.7683 29.578 12.2625 28.1636 11.7001C26.3058 10.9614 22.8104 10.3244 20.8399 10.807C19.7086 9.67565 20.7169 8.45381 22.1498 8.00846C24.3529 7.32372 27.4491 7.56189 29.027 10.0627C28.5209 8.15732 25.0674 5.86493 22.3582 5.86493C20.2895 5.86493 18.705 6.33693 17.3269 7.41304C16.0077 8.44313 15.5821 10.2114 16.1062 12.2062C13.8139 10.539 10.0031 10.9485 6.99625 12.6752C6.99625 12.6752 8.96115 3.70466 14.2307 1.78627Z" fill="url(#paint2_linear_23_129)"/>
<rect x="20.9031" y="13.278" width="3.03667" height="3.03667" rx="1.51833" transform="rotate(12.5272 20.9031 13.278)" fill="#D9D9D9"/>
<rect x="20.9031" y="13.278" width="3.03667" height="3.03667" rx="1.51833" transform="rotate(12.5272 20.9031 13.278)" fill="url(#paint3_linear_23_129)"/>
<path d="M23.7156 19.5236C23.3169 18.8221 23.6943 17.9334 24.476 17.7332V17.7332C25.0029 17.5983 25.5556 17.8272 25.8327 18.2953L27.5278 21.158C27.8291 21.667 27.7337 22.3173 27.2988 22.7181V22.7181C26.7058 23.2648 25.7583 23.1172 25.3597 22.416L23.7156 19.5236Z" fill="#225BFF"/>
<path d="M50.8342 20.3519C49.8609 25.8746 42.8562 39.2188 31.5138 42.1926C29.5457 41.0564 25.8696 37.607 26.9098 32.8998C27.9499 28.1925 30.9526 25.3218 32.3239 24.4749C32.555 24.7306 32.9873 25.1391 33.5083 25.4726C31.7344 27.9403 30.6125 29.8593 30.1522 31.2854C29.7672 32.4783 29.8653 34.8984 31.2579 36.694C31.9714 37.614 34.6495 39.3342 36.481 37.7102C34.5416 38.6875 32.4393 37.0367 31.9233 36.137C31.0146 34.5525 31.1235 32.8931 31.8625 31.4341C32.6303 29.9181 34.0878 28.405 35.2821 27.4613C36.8508 26.2218 39.1502 23.5131 39.7175 21.5653C41.2629 21.1512 41.8168 22.6354 41.4861 24.099C40.9776 26.3493 39.2232 28.9116 36.2685 29.0277C38.1717 29.542 41.8836 27.6975 43.2382 25.3512C44.2726 23.5597 44.6561 21.9515 44.4132 20.2199C44.1807 18.5624 42.8621 17.3097 40.8725 16.7662C43.4625 15.6146 45.0133 12.1097 45.0214 8.64225C45.0214 8.64225 51.8076 14.8292 50.8342 20.3519Z" fill="url(#paint4_linear_23_129)"/>
<rect x="37.5459" y="20.3846" width="3.03667" height="3.03667" rx="1.51833" transform="rotate(132.527 37.5459 20.3846)" fill="#D9D9D9"/>
<rect x="37.5459" y="20.3846" width="3.03667" height="3.03667" rx="1.51833" transform="rotate(132.527 37.5459 20.3846)" fill="url(#paint5_linear_23_129)"/>
<path d="M30.7308 19.6975C31.5377 19.7029 32.1186 20.4741 31.9011 21.2512V21.2512C31.7545 21.7749 31.2799 22.1391 30.736 22.1451L27.4092 22.1817C26.8178 22.1882 26.3024 21.7804 26.1726 21.2034V21.2034C25.9957 20.4164 26.5973 19.6697 27.4039 19.6751L30.7308 19.6975Z" fill="#225BFF"/>
<path d="M71.6486 31.308C70.5473 31.308 69.5486 31.112 68.6526 30.72C67.7753 30.328 67.0379 29.8147 66.4406 29.18C65.8619 28.5267 65.3766 27.7613 64.9846 26.884C64.5926 25.988 64.3126 25.0733 64.1446 24.14C63.9766 23.188 63.8926 22.208 63.8926 21.2C63.8926 19.968 64.0326 18.7827 64.3126 17.644C64.6113 16.4867 65.0593 15.4133 65.6566 14.424C66.2539 13.416 67.0659 12.6133 68.0926 12.016C69.1193 11.4 70.3046 11.092 71.6486 11.092C73.1793 11.092 74.4579 11.484 75.4846 12.268C76.5113 13.052 77.2579 14.0227 77.7246 15.18L74.7566 16.608C74.3459 15.824 73.8979 15.236 73.4126 14.844C72.9459 14.452 72.3579 14.256 71.6486 14.256C70.6406 14.256 69.8006 14.6293 69.1286 15.376C68.4566 16.1227 67.9899 17 67.7286 18.008C67.4673 18.9973 67.3366 20.0613 67.3366 21.2C67.3366 23.048 67.7099 24.672 68.4566 26.072C69.2033 27.4533 70.2673 28.144 71.6486 28.144C72.9553 28.144 74.0006 27.304 74.7846 25.624L77.8086 26.772C76.5766 29.796 74.5233 31.308 71.6486 31.308ZM84.7305 36.432L86.9145 30.748L81.5665 16.692H84.8425L88.1185 25.428C88.2678 25.8013 88.4078 26.2493 88.5385 26.772C88.5758 26.6413 88.6225 26.5013 88.6785 26.352C88.7345 26.184 88.7905 26.016 88.8465 25.848C88.9025 25.6613 88.9492 25.5213 88.9865 25.428L92.2625 16.692H95.5665L88.0625 36.432H84.7305ZM106.52 31.336C104.952 31.336 103.739 30.86 102.88 29.908V31H99.6604V12.268L102.88 10.784V17.812C103.272 17.3827 103.804 17.0373 104.476 16.776C105.167 16.496 105.867 16.356 106.576 16.356C108.368 16.356 109.824 17.028 110.944 18.372C112.064 19.716 112.624 21.536 112.624 23.832C112.624 26.2213 112.083 28.0693 111 29.376C109.918 30.6827 108.424 31.336 106.52 31.336ZM106.016 28.256C107.118 28.256 107.948 27.8733 108.508 27.108C109.087 26.324 109.376 25.232 109.376 23.832C109.376 22.3947 109.087 21.3027 108.508 20.556C107.948 19.7907 107.118 19.408 106.016 19.408C105.307 19.408 104.672 19.5573 104.112 19.856C103.571 20.136 103.16 20.4627 102.88 20.836V26.856C103.571 27.7893 104.616 28.256 106.016 28.256ZM129.598 23.132C129.598 23.9533 129.561 24.6067 129.486 25.092H119.742C119.948 26.1373 120.358 26.968 120.974 27.584C121.609 28.1813 122.421 28.48 123.41 28.48C124.661 28.48 125.716 28.0133 126.574 27.08L128.506 29.124C127.162 30.5987 125.454 31.336 123.382 31.336C121.273 31.336 119.602 30.6547 118.37 29.292C117.157 27.9293 116.55 26.1093 116.55 23.832C116.55 21.5173 117.166 19.6973 118.398 18.372C119.63 17.028 121.292 16.356 123.382 16.356C125.212 16.356 126.705 16.9347 127.862 18.092C129.02 19.2307 129.598 20.9107 129.598 23.132ZM119.714 22.348H126.434C126.341 21.3027 126.005 20.5187 125.426 19.996C124.866 19.4547 124.185 19.184 123.382 19.184C122.356 19.184 121.525 19.464 120.89 20.024C120.274 20.584 119.882 21.3587 119.714 22.348ZM144.052 16.356C145.34 16.356 146.46 16.608 147.412 17.112V22.404H144.276V19.352H143.996C142.522 19.352 141.383 19.6973 140.58 20.388C139.778 21.0787 139.376 22.1147 139.376 23.496V28.172H143.38V31H133.132V28.172H136.156V19.52H133.132V16.692H139.152V18.988C139.544 18.1667 140.188 17.5227 141.084 17.056C141.98 16.5893 142.97 16.356 144.052 16.356ZM157.89 31.336C156.191 31.336 154.745 30.8413 153.55 29.852C152.355 28.844 151.487 27.6027 150.946 26.128C150.423 24.6347 150.162 22.992 150.162 21.2C150.162 19.5013 150.433 17.9053 150.974 16.412C151.534 14.9 152.411 13.6307 153.606 12.604C154.819 11.5773 156.247 11.064 157.89 11.064C159.402 11.064 160.615 11.4187 161.53 12.128C162.463 12.8373 163.266 13.7987 163.938 15.012L160.998 16.692C160.121 15.0493 159.085 14.228 157.89 14.228C156.901 14.228 156.07 14.6107 155.398 15.376C154.745 16.1227 154.287 17 154.026 18.008C153.765 18.9973 153.634 20.0613 153.634 21.2C153.634 23.1227 153.998 24.7653 154.726 26.128C155.454 27.4907 156.509 28.172 157.89 28.172C158.898 28.172 159.663 27.836 160.186 27.164C160.727 26.492 160.998 25.6147 160.998 24.532V24.112H157.582V20.976H164.414V23.692C164.414 26.1 163.807 27.976 162.594 29.32C161.381 30.664 159.813 31.336 157.89 31.336ZM181.36 23.132C181.36 23.9533 181.323 24.6067 181.248 25.092H171.504C171.709 26.1373 172.12 26.968 172.736 27.584C173.371 28.1813 174.183 28.48 175.172 28.48C176.423 28.48 177.477 28.0133 178.336 27.08L180.268 29.124C178.924 30.5987 177.216 31.336 175.144 31.336C173.035 31.336 171.364 30.6547 170.132 29.292C168.919 27.9293 168.312 26.1093 168.312 23.832C168.312 21.5173 168.928 19.6973 170.16 18.372C171.392 17.028 173.053 16.356 175.144 16.356C176.973 16.356 178.467 16.9347 179.624 18.092C180.781 19.2307 181.36 20.9107 181.36 23.132ZM171.476 22.348H178.196C178.103 21.3027 177.767 20.5187 177.188 19.996C176.628 19.4547 175.947 19.184 175.144 19.184C174.117 19.184 173.287 19.464 172.652 20.024C172.036 20.584 171.644 21.3587 171.476 22.348ZM193.098 16.356C194.666 16.356 195.935 16.832 196.906 17.784C197.895 18.7173 198.39 20.2107 198.39 22.264V31H195.17V22.936C195.17 21.704 194.899 20.808 194.358 20.248C193.817 19.688 193.098 19.408 192.202 19.408C190.093 19.408 189.038 20.5653 189.038 22.88V31H185.818V16.692H188.786V18.456C189.066 17.896 189.607 17.4107 190.41 17C191.231 16.5707 192.127 16.356 193.098 16.356ZM202.764 24.252V21.144H215.924V24.252H202.764ZM226.822 31.336C225.235 31.336 223.807 30.8787 222.538 29.964C221.268 29.0493 220.372 27.8267 219.85 26.296L222.874 25.176C223.303 26.0907 223.891 26.828 224.638 27.388C225.403 27.9293 226.224 28.2 227.102 28.2C227.96 28.2 228.651 27.976 229.174 27.528C229.696 27.08 229.958 26.436 229.958 25.596C229.958 24.8867 229.603 24.2613 228.894 23.72C228.184 23.16 227.195 22.6 225.926 22.04C225.123 21.6853 224.479 21.3773 223.994 21.116C223.508 20.8547 222.958 20.4907 222.342 20.024C221.744 19.5573 221.296 19.0067 220.998 18.372C220.699 17.7373 220.55 17.028 220.55 16.244C220.55 14.788 221.1 13.5653 222.202 12.576C223.322 11.568 224.787 11.064 226.598 11.064C228.035 11.064 229.286 11.456 230.35 12.24C231.432 13.024 232.151 14.0227 232.506 15.236L229.51 16.244C228.838 14.8813 227.802 14.2 226.402 14.2C225.674 14.2 225.076 14.3867 224.61 14.76C224.143 15.1333 223.91 15.6467 223.91 16.3C223.91 16.4493 223.928 16.5987 223.966 16.748C224.003 16.8787 224.068 17.0093 224.162 17.14C224.255 17.252 224.339 17.364 224.414 17.476C224.507 17.5693 224.638 17.6813 224.806 17.812C224.992 17.924 225.142 18.0173 225.254 18.092C225.384 18.1667 225.571 18.2693 225.814 18.4C226.056 18.512 226.243 18.596 226.374 18.652C226.504 18.708 226.719 18.8107 227.018 18.96C227.316 19.0907 227.531 19.184 227.662 19.24C228.446 19.5947 229.099 19.9307 229.622 20.248C230.144 20.5467 230.723 20.948 231.358 21.452C231.992 21.956 232.478 22.5533 232.814 23.244C233.15 23.9347 233.318 24.6907 233.318 25.512C233.318 27.304 232.683 28.7227 231.414 29.768C230.163 30.8133 228.632 31.336 226.822 31.336ZM250.376 23.132C250.376 23.9533 250.338 24.6067 250.264 25.092H240.52C240.725 26.1373 241.136 26.968 241.752 27.584C242.386 28.1813 243.198 28.48 244.188 28.48C245.438 28.48 246.493 28.0133 247.352 27.08L249.284 29.124C247.94 30.5987 246.232 31.336 244.16 31.336C242.05 31.336 240.38 30.6547 239.148 29.292C237.934 27.9293 237.328 26.1093 237.328 23.832C237.328 21.5173 237.944 19.6973 239.176 18.372C240.408 17.028 242.069 16.356 244.16 16.356C245.989 16.356 247.482 16.9347 248.64 18.092C249.797 19.2307 250.376 20.9107 250.376 23.132ZM240.492 22.348H247.212C247.118 21.3027 246.782 20.5187 246.204 19.996C245.644 19.4547 244.962 19.184 244.16 19.184C243.133 19.184 242.302 19.464 241.668 20.024C241.052 20.584 240.66 21.3587 240.492 22.348ZM261.386 31.336C259.37 31.336 257.774 30.6733 256.598 29.348C255.422 28.0227 254.834 26.1933 254.834 23.86C254.834 21.5453 255.431 19.716 256.626 18.372C257.839 17.028 259.444 16.356 261.442 16.356C264.484 16.356 266.444 17.6533 267.322 20.248L264.27 21.284C263.784 20.0333 262.851 19.408 261.47 19.408C260.406 19.408 259.575 19.8093 258.978 20.612C258.399 21.4147 258.11 22.4973 258.11 23.86C258.11 25.2227 258.399 26.296 258.978 27.08C259.575 27.864 260.387 28.256 261.414 28.256C262.907 28.256 263.887 27.556 264.354 26.156L267.406 27.108C266.547 29.9267 264.54 31.336 261.386 31.336ZM277.407 31.336C275.821 31.336 274.533 30.8693 273.543 29.936C272.573 28.984 272.087 27.472 272.087 25.4V16.692H275.307V24.7C275.307 27.0707 276.287 28.256 278.247 28.256C280.357 28.256 281.411 27.0893 281.411 24.756V16.692H284.631V31H281.411V29.628C280.497 30.7667 279.162 31.336 277.407 31.336ZM299.337 16.356C300.625 16.356 301.745 16.608 302.697 17.112V22.404H299.561V19.352H299.281C297.807 19.352 296.668 19.6973 295.865 20.388C295.063 21.0787 294.661 22.1147 294.661 23.496V28.172H298.665V31H288.417V28.172H291.441V19.52H288.417V16.692H294.437V18.988C294.829 18.1667 295.473 17.5227 296.369 17.056C297.265 16.5893 298.255 16.356 299.337 16.356ZM319.391 23.132C319.391 23.9533 319.354 24.6067 319.279 25.092H309.535C309.741 26.1373 310.151 26.968 310.767 27.584C311.402 28.1813 312.214 28.48 313.203 28.48C314.454 28.48 315.509 28.0133 316.367 27.08L318.299 29.124C316.955 30.5987 315.247 31.336 313.175 31.336C311.066 31.336 309.395 30.6547 308.163 29.292C306.95 27.9293 306.343 26.1093 306.343 23.832C306.343 21.5173 306.959 19.6973 308.191 18.372C309.423 17.028 311.085 16.356 313.175 16.356C315.005 16.356 316.498 16.9347 317.655 18.092C318.813 19.2307 319.391 20.9107 319.391 23.132ZM309.507 22.348H316.227C316.134 21.3027 315.798 20.5187 315.219 19.996C314.659 19.4547 313.978 19.184 313.175 19.184C312.149 19.184 311.318 19.464 310.683 20.024C310.067 20.584 309.675 21.3587 309.507 22.348Z" fill="black"/>
<defs>
<linearGradient id="paint0_linear_23_129" x1="17.4048" y1="47.5098" x2="10.6077" y2="12.802" gradientUnits="userSpaceOnUse">
<stop stop-color="#9868FF"/>
<stop offset="0.380208" stop-color="#6922FF"/>
<stop offset="0.621469" stop-color="#2253FF"/>
<stop offset="1" stop-color="#227AFF"/>
</linearGradient>
<linearGradient id="paint1_linear_23_129" x1="22.6862" y1="30.746" x2="25.7177" y2="31.1935" gradientUnits="userSpaceOnUse">
<stop stop-color="#9868FF"/>
<stop offset="0.380208" stop-color="#6922FF"/>
<stop offset="0.621469" stop-color="#2253FF"/>
<stop offset="1" stop-color="#227AFF"/>
</linearGradient>
<linearGradient id="paint2_linear_23_129" x1="9.00143" y1="0.580599" x2="42.4578" y2="12.0479" gradientUnits="userSpaceOnUse">
<stop stop-color="#9868FF"/>
<stop offset="0.380208" stop-color="#6922FF"/>
<stop offset="0.621469" stop-color="#2253FF"/>
<stop offset="1" stop-color="#227AFF"/>
</linearGradient>
<linearGradient id="paint3_linear_23_129" x1="21.139" y1="13.1701" x2="24.1706" y2="13.6175" gradientUnits="userSpaceOnUse">
<stop stop-color="#9868FF"/>
<stop offset="0.380208" stop-color="#6922FF"/>
<stop offset="0.621469" stop-color="#2253FF"/>
<stop offset="1" stop-color="#227AFF"/>
</linearGradient>
<linearGradient id="paint4_linear_23_129" x1="54.493" y1="16.4261" x2="27.8338" y2="39.6665" gradientUnits="userSpaceOnUse">
<stop stop-color="#9868FF"/>
<stop offset="0.380208" stop-color="#6922FF"/>
<stop offset="0.621469" stop-color="#2253FF"/>
<stop offset="1" stop-color="#227AFF"/>
</linearGradient>
<linearGradient id="paint5_linear_23_129" x1="37.7818" y1="20.2767" x2="40.8134" y2="20.7241" gradientUnits="userSpaceOnUse">
<stop stop-color="#9868FF"/>
<stop offset="0.380208" stop-color="#6922FF"/>
<stop offset="0.621469" stop-color="#2253FF"/>
<stop offset="1" stop-color="#227AFF"/>
</linearGradient>
</defs>
</svg>
