<svg width="322" height="49" viewBox="0 0 322 49" fill="none" xmlns="http://www.w3.org/2000/svg">
<path d="M15.9901 42.3783C11.6939 38.7739 3.63983 26.0357 6.73565 14.7259C8.70372 13.5896 13.529 12.1307 17.0855 15.3851C20.6421 18.6396 21.6268 22.6753 21.6746 24.2863C21.3376 24.3587 20.7677 24.5288 20.2184 24.8132C18.9682 22.0431 17.8673 20.1121 16.8623 19.0004C16.0218 18.0705 13.8769 16.9454 11.6255 17.2536C10.4721 17.4115 7.64328 18.8708 8.13401 21.2688C8.25729 19.1007 10.7381 18.1054 11.7753 18.1084C13.6018 18.1137 14.9844 19.0377 15.8785 20.4071C16.8075 21.8301 17.3891 23.8489 17.6092 25.3551C17.8983 27.3333 19.0944 30.679 20.4976 32.1442C20.0835 33.6896 18.5212 33.4272 17.4191 32.409C15.7245 30.8434 14.3827 28.043 15.7595 25.4261C14.3625 26.8171 14.1039 30.9541 15.4585 33.3003C16.4928 35.0918 17.6939 36.2281 19.3149 36.8835C20.8666 37.5109 22.6108 36.9953 24.0762 35.544C23.7786 38.3629 26.0385 41.4583 29.0374 43.199C29.0374 43.199 20.2862 45.9826 15.9901 42.3783Z" fill="url(#paint0_linear_23_129)"/>
<rect x="22.606" y="30.8539" width="3.03667" height="3.03667" rx="1.51833" transform="rotate(-107.473 22.606 30.8539)" fill="#D9D9D9"/>
<rect x="22.606" y="30.8539" width="3.03667" height="3.03667" rx="1.51833" transform="rotate(-107.473 22.606 30.8539)" fill="url(#paint1_linear_23_129)"/>
<path d="M26.6086 25.2954C26.2004 25.9915 25.2421 26.109 24.6778 25.5321V25.5321C24.2975 25.1433 24.2195 24.5501 24.4862 24.0761L26.118 21.1767C26.408 20.6613 27.0189 20.4188 27.5835 20.595V20.595C28.3535 20.8352 28.6994 21.7296 28.2914 22.4254L26.6086 25.2954Z" fill="#225BFF"/>
<path d="M14.3864 1.78627C19.6559 -0.132123 34.7146 -0.738049 42.9612 7.5979C42.9612 9.87043 41.812 14.7787 37.2154 16.2316C32.6187 17.6844 28.6313 16.5193 27.2122 15.7552C27.318 15.4272 27.4557 14.8486 27.484 14.2306C30.5081 14.533 32.7308 14.5451 34.1961 14.2307C35.4216 13.9676 37.4684 12.6727 38.3272 10.5688C38.7672 9.49093 38.9179 6.3115 36.5957 5.53745C38.4117 6.7283 38.0333 9.37434 37.5121 10.2711C36.5943 11.8503 35.1028 12.5856 33.4697 12.6752C31.7729 12.7683 29.7337 12.2625 28.3193 11.7001C26.4615 10.9614 22.9661 10.3244 20.9956 10.807C19.8643 9.67565 20.8726 8.45381 22.3055 8.00846C24.5086 7.32372 27.6048 7.56189 29.1827 10.0627C28.6766 8.15732 25.2231 5.86493 22.5139 5.86493C20.4452 5.86493 18.8607 6.33693 17.4826 7.41304C16.1634 8.44313 15.7378 10.2114 16.2619 12.2062C13.9696 10.539 10.1588 10.9485 7.15195 12.6752C7.15195 12.6752 9.11685 3.70466 14.3864 1.78627Z" fill="url(#paint2_linear_23_129)"/>
<rect x="21.0588" y="13.278" width="3.03667" height="3.03667" rx="1.51833" transform="rotate(12.5272 21.0588 13.278)" fill="#D9D9D9"/>
<rect x="21.0588" y="13.278" width="3.03667" height="3.03667" rx="1.51833" transform="rotate(12.5272 21.0588 13.278)" fill="url(#paint3_linear_23_129)"/>
<path d="M23.8713 19.5236C23.4726 18.8221 23.85 17.9334 24.6317 17.7332V17.7332C25.1586 17.5983 25.7113 17.8272 25.9884 18.2953L27.6835 21.158C27.9848 21.667 27.8894 22.3173 27.4545 22.7181V22.7181C26.8615 23.2648 25.914 23.1172 25.5154 22.416L23.8713 19.5236Z" fill="#225BFF"/>
<path d="M50.9899 20.3519C50.0166 25.8746 43.012 39.2188 31.6695 42.1926C29.7014 41.0564 26.0253 37.607 27.0655 32.8998C28.1056 28.1925 31.1083 25.3218 32.4796 24.4749C32.7107 24.7306 33.143 25.1391 33.664 25.4726C31.8901 27.9403 30.7682 29.8593 30.3079 31.2854C29.9229 32.4783 30.021 34.8984 31.4136 36.694C32.1271 37.614 34.8052 39.3342 36.6367 37.7102C34.6973 38.6875 32.595 37.0367 32.079 36.137C31.1703 34.5525 31.2792 32.8931 32.0182 31.4341C32.786 29.9181 34.2435 28.405 35.4378 27.4613C37.0065 26.2218 39.3059 23.5131 39.8732 21.5653C41.4186 21.1512 41.9725 22.6354 41.6418 24.099C41.1333 26.3493 39.3789 28.9116 36.4242 29.0277C38.3274 29.542 42.0393 27.6975 43.3939 25.3512C44.4283 23.5597 44.8118 21.9515 44.5689 20.2199C44.3364 18.5624 43.0178 17.3097 41.0282 16.7662C43.6182 15.6146 45.169 12.1097 45.1771 8.64225C45.1771 8.64225 51.9633 14.8292 50.9899 20.3519Z" fill="url(#paint4_linear_23_129)"/>
<rect x="37.7016" y="20.3846" width="3.03667" height="3.03667" rx="1.51833" transform="rotate(132.527 37.7016 20.3846)" fill="#D9D9D9"/>
<rect x="37.7016" y="20.3846" width="3.03667" height="3.03667" rx="1.51833" transform="rotate(132.527 37.7016 20.3846)" fill="url(#paint5_linear_23_129)"/>
<path d="M30.8865 19.6975C31.6934 19.7029 32.2743 20.4741 32.0568 21.2512V21.2512C31.9102 21.7749 31.4356 22.1391 30.8917 22.1451L27.5649 22.1817C26.9735 22.1882 26.4581 21.7804 26.3283 21.2034V21.2034C26.1514 20.4164 26.753 19.6697 27.5596 19.6751L30.8865 19.6975Z" fill="#225BFF"/>
<path d="M77.2363 14.34H73.1203V28.06H77.2363V31H65.7003V28.06H69.7883V14.34H65.7003V11.4H77.2363V14.34ZM92.6142 16.356C93.8089 16.356 94.6862 16.776 95.2462 17.616C95.8249 18.4373 96.1142 19.828 96.1142 21.788V31H93.1742V22.264C93.1742 21.256 93.0809 20.5373 92.8942 20.108C92.7075 19.66 92.3622 19.436 91.8582 19.436C91.3729 19.436 90.9809 19.688 90.6822 20.192C90.4022 20.696 90.2622 21.396 90.2622 22.292V31H87.3222V22.18C87.3222 20.3507 86.8742 19.436 85.9782 19.436C85.4555 19.436 85.0355 19.688 84.7182 20.192C84.4195 20.696 84.2702 21.396 84.2702 22.292V31H81.3302V16.692H84.0742V18.596C84.5969 17.1027 85.5395 16.356 86.9022 16.356C87.4995 16.356 88.0222 16.5613 88.4702 16.972C88.9369 17.3827 89.2635 17.868 89.4502 18.428C90.3089 17.0467 91.3635 16.356 92.6142 16.356ZM99.8161 36.628V16.692H103.036V17.784C103.913 16.832 105.08 16.356 106.536 16.356C108.459 16.356 109.98 17.0187 111.1 18.344C112.239 19.6693 112.808 21.508 112.808 23.86C112.808 26.156 112.22 27.976 111.044 29.32C109.887 30.664 108.393 31.336 106.564 31.336C105.071 31.336 103.895 30.8413 103.036 29.852V35.144L99.8161 36.628ZM106.088 28.256C107.189 28.256 108.039 27.8827 108.636 27.136C109.252 26.3707 109.56 25.2787 109.56 23.86C109.56 22.4973 109.252 21.4147 108.636 20.612C108.039 19.8093 107.18 19.408 106.06 19.408C104.716 19.408 103.708 19.884 103.036 20.836V26.828C103.708 27.78 104.725 28.256 106.088 28.256ZM126.954 16.356C128.242 16.356 129.362 16.608 130.314 17.112V22.404H127.178V19.352H126.898C125.423 19.352 124.285 19.6973 123.482 20.388C122.679 21.0787 122.278 22.1147 122.278 23.496V28.172H126.282V31H116.034V28.172H119.058V19.52H116.034V16.692H122.054V18.988C122.446 18.1667 123.09 17.5227 123.986 17.056C124.882 16.5893 125.871 16.356 126.954 16.356ZM140.596 14.704C140.073 14.704 139.625 14.5173 139.252 14.144C138.879 13.7707 138.692 13.3133 138.692 12.772C138.692 12.2307 138.879 11.7827 139.252 11.428C139.625 11.0547 140.073 10.868 140.596 10.868C141.137 10.868 141.595 11.0547 141.968 11.428C142.341 11.7827 142.528 12.2307 142.528 12.772C142.528 13.3133 142.341 13.7707 141.968 14.144C141.595 14.5173 141.137 14.704 140.596 14.704ZM142.22 28.172H146.168V31H135.052V28.172H139V19.52H135.052V16.692H142.22V28.172ZM158.746 16.356C160.314 16.356 161.583 16.832 162.554 17.784C163.543 18.7173 164.038 20.2107 164.038 22.264V31H160.818V22.936C160.818 21.704 160.547 20.808 160.006 20.248C159.464 19.688 158.746 19.408 157.85 19.408C155.74 19.408 154.686 20.5653 154.686 22.88V31H151.466V16.692H154.434V18.456C154.714 17.896 155.255 17.4107 156.058 17C156.879 16.5707 157.775 16.356 158.746 16.356ZM176.308 31.336C173.508 31.336 172.108 30.0387 172.108 27.444V19.52H169.112V16.692H172.108V12.324L175.328 10.784V16.692H180.2V19.52H175.328V26.828C175.328 27.9293 176 28.48 177.344 28.48C178.128 28.48 178.949 28.256 179.808 27.808L179.416 30.692C178.594 31.1213 177.558 31.336 176.308 31.336ZM203.004 31V11.4H209.92C212.178 11.4 213.83 11.988 214.876 13.164C215.94 14.34 216.472 15.7773 216.472 17.476C216.472 19.0813 215.921 20.5 214.82 21.732C213.718 22.9453 212.085 23.552 209.92 23.552H206.336V31H203.004ZM206.336 20.416H210.088C211.096 20.416 211.842 20.1267 212.328 19.548C212.832 18.9693 213.084 18.2787 213.084 17.476C213.084 16.7107 212.841 16.0293 212.356 15.432C211.889 14.8347 211.133 14.536 210.088 14.536H206.336V20.416ZM225.661 31.336C224.093 31.336 222.815 30.9253 221.825 30.104C220.855 29.2827 220.369 28.1067 220.369 26.576C220.369 25.0267 220.929 23.8507 222.049 23.048C223.169 22.2453 224.513 21.844 226.081 21.844C227.444 21.844 228.629 22.096 229.637 22.6V21.76C229.637 20.0427 228.695 19.184 226.809 19.184C225.241 19.184 223.729 19.6693 222.273 20.64L221.293 18.008C223.029 16.9067 224.961 16.356 227.089 16.356C230.879 16.356 232.773 18.148 232.773 21.732V31H229.637V29.88C228.629 30.8507 227.304 31.336 225.661 31.336ZM226.249 28.508C227.593 28.508 228.723 28.032 229.637 27.08V25.232C228.779 24.8027 227.761 24.588 226.585 24.588C225.689 24.588 224.943 24.756 224.345 25.092C223.767 25.428 223.477 25.9227 223.477 26.576C223.477 27.1547 223.72 27.6213 224.205 27.976C224.691 28.3307 225.372 28.508 226.249 28.508ZM244.091 31.336C242.878 31.336 241.758 31.112 240.731 30.664C239.705 30.1973 238.883 29.572 238.267 28.788L240.367 26.884C241.543 28.0227 242.841 28.592 244.259 28.592C244.95 28.592 245.519 28.4707 245.967 28.228C246.415 27.9853 246.639 27.6213 246.639 27.136C246.639 26.856 246.499 26.5947 246.219 26.352C245.958 26.0907 245.65 25.876 245.295 25.708C244.941 25.54 244.418 25.316 243.727 25.036C243.653 24.9987 243.587 24.9707 243.531 24.952C243.494 24.9333 243.438 24.9147 243.363 24.896C243.289 24.8587 243.223 24.8307 243.167 24.812C242.477 24.5133 241.963 24.2893 241.627 24.14C241.291 23.972 240.881 23.748 240.395 23.468C239.929 23.1693 239.583 22.8893 239.359 22.628C239.154 22.3667 238.967 22.04 238.799 21.648C238.631 21.2373 238.547 20.78 238.547 20.276C238.547 19.0627 239.07 18.1107 240.115 17.42C241.161 16.7107 242.477 16.356 244.063 16.356C246.285 16.356 248.067 17.112 249.411 18.624L247.255 20.388C246.229 19.5293 245.127 19.1 243.951 19.1C243.223 19.1 242.635 19.212 242.187 19.436C241.758 19.6413 241.543 19.94 241.543 20.332C241.543 20.5187 241.618 20.7053 241.767 20.892C241.917 21.06 242.178 21.2467 242.551 21.452C242.925 21.6387 243.233 21.788 243.475 21.9C243.718 21.9933 244.129 22.152 244.707 22.376C246.425 23.0667 247.563 23.6267 248.123 24.056C249.113 24.84 249.617 25.8573 249.635 27.108C249.635 28.4333 249.131 29.4693 248.123 30.216C247.134 30.9627 245.79 31.336 244.091 31.336ZM261.345 31.336C260.132 31.336 259.012 31.112 257.985 30.664C256.959 30.1973 256.137 29.572 255.521 28.788L257.621 26.884C258.797 28.0227 260.095 28.592 261.513 28.592C262.204 28.592 262.773 28.4707 263.221 28.228C263.669 27.9853 263.893 27.6213 263.893 27.136C263.893 26.856 263.753 26.5947 263.473 26.352C263.212 26.0907 262.904 25.876 262.549 25.708C262.195 25.54 261.672 25.316 260.981 25.036C260.907 24.9987 260.841 24.9707 260.785 24.952C260.748 24.9333 260.692 24.9147 260.617 24.896C260.543 24.8587 260.477 24.8307 260.421 24.812C259.731 24.5133 259.217 24.2893 258.881 24.14C258.545 23.972 258.135 23.748 257.649 23.468C257.183 23.1693 256.837 22.8893 256.613 22.628C256.408 22.3667 256.221 22.04 256.053 21.648C255.885 21.2373 255.801 20.78 255.801 20.276C255.801 19.0627 256.324 18.1107 257.369 17.42C258.415 16.7107 259.731 16.356 261.317 16.356C263.539 16.356 265.321 17.112 266.665 18.624L264.509 20.388C263.483 19.5293 262.381 19.1 261.205 19.1C260.477 19.1 259.889 19.212 259.441 19.436C259.012 19.6413 258.797 19.94 258.797 20.332C258.797 20.5187 258.872 20.7053 259.021 20.892C259.171 21.06 259.432 21.2467 259.805 21.452C260.179 21.6387 260.487 21.788 260.729 21.9C260.972 21.9933 261.383 22.152 261.961 22.376C263.679 23.0667 264.817 23.6267 265.377 24.056C266.367 24.84 266.871 25.8573 266.889 27.108C266.889 28.4333 266.385 29.4693 265.377 30.216C264.388 30.9627 263.044 31.336 261.345 31.336ZM277.675 36.684L275.939 34.052C277.937 33.9027 279.309 33.5947 280.055 33.128C280.821 32.6613 281.203 31.9053 281.203 30.86V30.02C280.438 30.8973 279.327 31.336 277.871 31.336C276.117 31.336 274.689 30.692 273.587 29.404C272.486 28.0973 271.935 26.24 271.935 23.832C271.935 21.536 272.486 19.716 273.587 18.372C274.689 17.028 276.135 16.356 277.927 16.356C279.29 16.356 280.382 16.7667 281.203 17.588V16.692H284.423V29.488C284.423 31.9333 283.91 33.6973 282.883 34.78C281.875 35.8813 280.139 36.516 277.675 36.684ZM278.431 28.256C279.645 28.256 280.569 27.7707 281.203 26.8V20.836C280.531 19.884 279.607 19.408 278.431 19.408C277.367 19.408 276.555 19.7907 275.995 20.556C275.435 21.3027 275.155 22.3947 275.155 23.832C275.155 25.1947 275.435 26.2773 275.995 27.08C276.574 27.864 277.386 28.256 278.431 28.256ZM302.293 23.132C302.293 23.9533 302.256 24.6067 302.181 25.092H292.437C292.642 26.1373 293.053 26.968 293.669 27.584C294.304 28.1813 295.116 28.48 296.105 28.48C297.356 28.48 298.41 28.0133 299.269 27.08L301.201 29.124C299.857 30.5987 298.149 31.336 296.077 31.336C293.968 31.336 292.297 30.6547 291.065 29.292C289.852 27.9293 289.245 26.1093 289.245 23.832C289.245 21.5173 289.861 19.6973 291.093 18.372C292.325 17.028 293.986 16.356 296.077 16.356C297.906 16.356 299.4 16.9347 300.557 18.092C301.714 19.2307 302.293 20.9107 302.293 23.132ZM292.409 22.348H299.129C299.036 21.3027 298.7 20.5187 298.121 19.996C297.561 19.4547 296.88 19.184 296.077 19.184C295.05 19.184 294.22 19.464 293.585 20.024C292.969 20.584 292.577 21.3587 292.409 22.348ZM314.031 16.356C315.599 16.356 316.868 16.832 317.839 17.784C318.828 18.7173 319.323 20.2107 319.323 22.264V31H316.103V22.936C316.103 21.704 315.832 20.808 315.291 20.248C314.75 19.688 314.031 19.408 313.135 19.408C311.026 19.408 309.971 20.5653 309.971 22.88V31H306.751V16.692H309.719V18.456C309.999 17.896 310.54 17.4107 311.343 17C312.164 16.5707 313.06 16.356 314.031 16.356Z" fill="black"/>
<defs>
<linearGradient id="paint0_linear_23_129" x1="17.5605" y1="47.5098" x2="10.7634" y2="12.802" gradientUnits="userSpaceOnUse">
<stop stop-color="#9868FF"/>
<stop offset="0.380208" stop-color="#6922FF"/>
<stop offset="0.621469" stop-color="#2253FF"/>
<stop offset="1" stop-color="#227AFF"/>
</linearGradient>
<linearGradient id="paint1_linear_23_129" x1="22.8419" y1="30.746" x2="25.8734" y2="31.1935" gradientUnits="userSpaceOnUse">
<stop stop-color="#9868FF"/>
<stop offset="0.380208" stop-color="#6922FF"/>
<stop offset="0.621469" stop-color="#2253FF"/>
<stop offset="1" stop-color="#227AFF"/>
</linearGradient>
<linearGradient id="paint2_linear_23_129" x1="9.15713" y1="0.580599" x2="42.6135" y2="12.0479" gradientUnits="userSpaceOnUse">
<stop stop-color="#9868FF"/>
<stop offset="0.380208" stop-color="#6922FF"/>
<stop offset="0.621469" stop-color="#2253FF"/>
<stop offset="1" stop-color="#227AFF"/>
</linearGradient>
<linearGradient id="paint3_linear_23_129" x1="21.2947" y1="13.1701" x2="24.3263" y2="13.6175" gradientUnits="userSpaceOnUse">
<stop stop-color="#9868FF"/>
<stop offset="0.380208" stop-color="#6922FF"/>
<stop offset="0.621469" stop-color="#2253FF"/>
<stop offset="1" stop-color="#227AFF"/>
</linearGradient>
<linearGradient id="paint4_linear_23_129" x1="54.6487" y1="16.4261" x2="27.9895" y2="39.6665" gradientUnits="userSpaceOnUse">
<stop stop-color="#9868FF"/>
<stop offset="0.380208" stop-color="#6922FF"/>
<stop offset="0.621469" stop-color="#2253FF"/>
<stop offset="1" stop-color="#227AFF"/>
</linearGradient>
<linearGradient id="paint5_linear_23_129" x1="37.9375" y1="20.2767" x2="40.9691" y2="20.7241" gradientUnits="userSpaceOnUse">
<stop stop-color="#9868FF"/>
<stop offset="0.380208" stop-color="#6922FF"/>
<stop offset="0.621469" stop-color="#2253FF"/>
<stop offset="1" stop-color="#227AFF"/>
</linearGradient>
</defs>
</svg>
